<?xml version="1.0" standalone="no"?>
<!DOCTYPE svg PUBLIC "-//W3C//DTD SVG 20010904//EN"
 "http://www.w3.org/TR/2001/REC-SVG-20010904/DTD/svg10.dtd">
<svg version="1.0" xmlns="http://www.w3.org/2000/svg"
 width="300.000000pt" height="207.000000pt" viewBox="0 0 300.000000 207.000000"
 preserveAspectRatio="xMidYMid meet">

<g transform="translate(0.000000,207.000000) scale(0.100000,-0.100000)"
fill="#000000" stroke="none">
<path d="M0 2049 c0 -13 4 -18 12 -13 10 6 10 5 2 -7 -8 -9 -12 -87 -11 -249
0 -129 2 -225 4 -212 6 32 16 27 29 -13 6 -19 8 -35 3 -35 -4 0 -9 5 -11 12
-2 6 -10 8 -16 4 -14 -8 -16 -102 -3 -110 12 -8 37 24 45 57 9 37 26 34 26 -4
0 -16 -4 -28 -9 -24 -5 3 -19 -8 -31 -25 -20 -28 -20 -31 -5 -60 15 -28 45
-42 45 -20 0 6 5 10 12 10 6 0 3 -9 -8 -21 -15 -17 -16 -23 -5 -41 11 -18 11
-20 -2 -15 -8 3 -19 1 -25 -5 -8 -8 -10 -2 -6 23 5 36 -17 76 -35 64 -7 -3
-11 -41 -11 -90 l0 -84 83 -3 82 -3 -58 -22 c-101 -40 -107 -46 -107 -117 1
-33 5 -80 9 -103 5 -24 5 -43 1 -43 -4 0 -7 -54 -7 -120 0 -75 3 -117 9 -114
6 4 6 -1 0 -12 -6 -12 -11 -144 -11 -337 l-1 -317 760 0 760 0 0 25 c0 14 8
29 21 35 27 15 22 54 -7 58 -19 3 -21 7 -14 37 4 18 4 39 -1 46 -5 8 0 17 14
24 27 13 32 71 6 69 -12 -1 -15 10 -15 51 1 43 5 54 21 61 12 6 20 19 20 34 0
20 -5 25 -23 24 -17 0 -21 3 -16 15 15 36 16 63 3 71 -10 7 -6 11 14 19 21 8
27 17 27 41 0 23 -4 30 -20 30 -22 0 -27 15 -9 26 6 3 9 18 6 33 -4 20 0 30
14 39 20 13 26 56 9 67 -18 11 -10 21 18 20 21 0 28 5 30 23 2 13 -2 30 -8 38
-10 11 -9 14 8 14 26 0 46 25 39 50 -3 13 1 24 14 30 10 6 19 21 19 34 0 13 8
34 19 47 10 13 21 31 24 39 3 10 6 7 6 -8 1 -29 30 -41 46 -18 9 12 14 13 18
4 2 -7 -6 -21 -19 -31 -13 -10 -24 -13 -24 -7 0 14 -33 13 -48 -2 -7 -7 -12
-20 -12 -30 0 -26 30 -35 45 -15 7 10 15 17 18 17 12 0 0 -27 -21 -50 -19 -20
-22 -21 -22 -6 0 28 -44 17 -48 -13 -5 -32 12 -48 33 -31 24 20 31 2 7 -20
-12 -12 -23 -16 -27 -10 -12 20 -45 10 -51 -14 -11 -45 29 -67 45 -24 l8 22 5
-22 c4 -13 -1 -27 -12 -37 -15 -14 -21 -14 -39 -3 -24 15 -43 2 -48 -32 -5
-31 26 -38 49 -11 l18 23 0 -22 c0 -20 4 -22 32 -16 29 6 30 5 16 -11 -9 -10
-18 -27 -21 -38 -3 -15 -5 -13 -6 8 -1 23 -5 28 -23 25 -17 -2 -24 -11 -26
-32 -4 -36 11 -54 33 -36 8 7 18 10 22 7 3 -4 -5 -15 -18 -26 -13 -11 -25 -15
-27 -10 -7 18 -43 9 -51 -13 -17 -46 15 -66 42 -28 l14 21 6 -22 c5 -18 10
-20 33 -15 24 6 26 5 15 -8 -9 -10 -22 -13 -41 -9 -25 5 -30 2 -36 -21 -3 -14
-3 -33 0 -42 6 -15 8 -15 31 0 28 18 34 4 10 -20 -19 -19 -20 -74 -2 -74 7 0
19 6 26 13 11 10 13 9 7 -6 -3 -10 -6 -20 -6 -23 0 -2 -13 -1 -30 2 -25 6 -31
3 -40 -20 -15 -39 -4 -57 26 -44 33 15 40 4 15 -21 -35 -35 -21 -90 15 -60 19
16 30 4 14 -16 -8 -10 -21 -13 -37 -9 -28 7 -43 -7 -43 -44 0 -21 3 -22 35
-16 39 7 46 -4 15 -24 -13 -8 -20 -23 -20 -42 0 -33 3 -35 31 -20 15 8 19 7
19 -4 0 -8 -5 -18 -10 -21 -6 -3 -10 -15 -10 -26 0 -18 10 -19 315 -19 l315 0
0 24 c0 14 5 28 10 31 16 10 12 47 -7 61 -16 12 -16 13 9 14 15 0 30 5 33 10
5 8 11 7 20 0 10 -8 19 -8 35 0 11 6 25 8 30 5 6 -4 19 -3 31 0 15 5 19 14 17
33 -3 29 -35 43 -49 21 -6 -10 -11 -10 -22 -1 -16 13 -47 6 -47 -10 0 -6 -6
-5 -15 2 -8 7 -21 10 -28 7 -10 -4 -13 7 -13 43 1 26 4 46 8 44 4 -3 12 5 18
17 11 20 12 20 25 2 12 -17 14 -17 32 -1 15 14 22 15 31 6 8 -8 18 -9 36 -1
17 8 27 8 34 1 16 -16 42 8 42 37 0 27 -30 42 -45 22 -8 -11 -14 -11 -28 -3
-12 8 -22 8 -35 0 -12 -8 -22 -8 -36 0 -14 9 -20 8 -28 -5 -9 -13 -16 -14 -34
-5 -19 9 -24 19 -24 50 0 23 7 47 16 58 16 17 18 17 30 1 11 -17 13 -17 33 1
12 11 21 14 21 8 0 -7 11 -12 25 -12 14 0 25 5 25 10 0 6 8 5 19 -2 15 -9 23
-9 35 1 13 11 19 11 31 1 13 -10 19 -10 35 5 11 10 20 13 20 7 0 -14 36 -16
45 -2 4 6 13 5 25 -2 14 -9 22 -9 32 0 11 9 17 9 26 0 8 -8 15 -8 27 2 23 19
15 54 -12 58 -18 3 -23 -2 -24 -20 l0 -23 -9 23 c-11 25 -38 29 -46 7 -6 -14
-8 -13 -20 2 -11 16 -16 16 -34 5 -17 -10 -25 -10 -36 -1 -11 9 -17 9 -28 -1
-11 -8 -20 -9 -33 -1 -13 7 -23 5 -35 -6 -11 -10 -18 -12 -18 -5 0 21 -40 13
-49 -10 l-8 -22 -5 22 c-7 24 -43 31 -51 10 -3 -9 -10 -8 -23 6 -14 13 -15 17
-4 14 8 -3 23 -1 34 4 12 7 22 6 29 -1 16 -16 47 6 47 34 0 27 -33 43 -53 26
-8 -6 -18 -6 -27 -1 -8 5 -18 6 -22 4 -4 -3 -8 15 -8 39 0 46 30 91 45 67 4
-7 -2 -18 -14 -27 -31 -21 -25 -58 9 -58 22 0 25 4 24 37 -1 29 3 38 19 42 12
3 27 1 33 -5 9 -7 18 -5 32 9 17 17 20 17 29 3 9 -13 15 -14 31 -4 14 8 23 8
30 1 19 -19 44 -1 40 29 -4 37 -48 47 -49 11 l0 -23 -9 23 c-10 24 -45 30 -54
10 -5 -10 -7 -10 -12 0 -7 15 -41 16 -46 1 -3 -9 -10 -8 -25 2 -18 11 -24 11
-38 -1 -11 -9 -19 -10 -27 -2 -8 8 -4 13 16 18 31 7 36 48 8 71 -16 13 -15 14
5 8 14 -4 25 0 31 11 6 11 11 13 16 5 11 -18 46 -13 46 7 1 16 1 16 11 0 12
-21 45 -24 53 -5 3 8 8 7 16 -6 11 -17 13 -17 36 -2 13 8 24 11 24 5 0 -16 40
-11 47 6 5 13 7 13 14 2 10 -16 91 -20 101 -5 6 9 11 8 18 -3 7 -12 13 -12 27
-4 13 8 23 8 36 0 14 -8 20 -8 27 4 9 13 11 13 20 0 7 -12 13 -13 28 -3 15 9
22 8 35 -5 15 -14 17 -14 23 1 5 14 9 15 20 6 12 -9 14 -5 14 27 -1 34 -2 37
-13 22 -12 -15 -14 -15 -24 0 -9 14 -12 15 -27 3 -13 -11 -19 -11 -32 0 -13
10 -17 10 -24 -1 -7 -11 -11 -11 -24 -1 -13 11 -19 11 -31 1 -12 -10 -18 -10
-31 1 -13 10 -17 10 -23 0 -7 -10 -12 -10 -30 1 -18 11 -23 11 -31 -1 -7 -13
-11 -13 -25 -1 -15 12 -19 12 -29 -2 -12 -16 -14 -16 -29 -1 -13 13 -19 14
-31 3 -13 -10 -19 -10 -31 0 -12 10 -18 10 -29 1 -11 -9 -19 -9 -35 1 -15 9
-23 10 -32 1 -9 -9 -16 -9 -29 0 -14 8 -22 8 -32 -1 -8 -6 -19 -7 -26 -3 -9 5
-5 11 13 19 19 9 26 19 24 35 -1 12 5 38 14 57 13 27 16 30 17 14 0 -36 50
-43 50 -7 0 11 5 9 18 -7 23 -28 42 -19 42 21 0 22 -5 29 -19 29 -11 0 -22 -4
-25 -9 -7 -10 -56 9 -56 23 0 4 12 5 26 2 14 -4 32 -2 39 4 9 7 16 6 25 -5 12
-14 15 -14 31 1 17 15 19 15 19 2 0 -9 -7 -18 -15 -22 -20 -7 -19 -52 1 -60
25 -10 34 -7 34 10 0 14 1 14 16 0 18 -18 30 -20 39 -6 4 6 13 5 25 -2 14 -9
22 -9 33 0 7 7 17 8 21 4 4 -4 39 -8 77 -8 l69 -1 0 27 c0 28 -24 48 -35 30
-4 -6 -14 -6 -27 1 -17 9 -24 8 -33 -4 -10 -14 -12 -14 -22 1 -8 14 -13 15
-26 4 -22 -19 -27 0 -6 20 17 16 19 16 28 0 8 -14 13 -15 29 -5 14 9 22 9 31
0 8 -8 14 -8 22 0 9 9 16 9 29 0 14 -8 22 -8 34 2 11 9 16 10 16 2 0 -6 13
-10 30 -9 25 2 30 7 30 28 0 23 -4 26 -38 26 -21 0 -43 4 -50 8 -7 4 -19 3
-27 -4 -9 -7 -15 -8 -20 0 -7 11 7 13 83 11 l52 -1 0 95 c0 52 -4 95 -9 95 -4
0 -6 11 -3 25 3 18 0 25 -12 25 -11 0 -16 -9 -16 -26 0 -16 -5 -24 -12 -21 -7
2 -13 13 -13 25 0 12 -4 22 -8 22 -4 0 -11 0 -17 0 -5 0 -10 -9 -10 -20 0 -11
-4 -20 -10 -20 -5 0 -10 11 -10 25 0 16 -6 25 -15 25 -8 0 -15 -8 -15 -19 0
-38 -22 -44 -122 -31 -177 21 -209 53 -205 208 1 67 5 88 14 85 7 -3 14 2 15
11 0 9 1 22 2 29 1 6 -6 12 -14 12 -11 0 -15 14 -15 58 -1 38 3 57 11 57 13 0
26 38 18 52 -3 4 -11 8 -18 8 -8 0 -12 18 -12 55 1 37 5 55 13 55 15 0 28 44
18 60 -3 5 -11 8 -16 5 -5 -4 -12 1 -15 9 -5 14 -30 16 -163 16 -109 0 -161
-4 -169 -12 -9 -9 -12 -9 -12 0 0 9 -66 12 -265 12 -205 0 -265 -3 -265 -12 0
-9 -3 -8 -10 2 -7 11 -12 12 -21 3 -9 -9 -7 -20 10 -48 25 -43 27 -75 6 -116
-14 -26 -14 -33 -1 -62 25 -57 26 -66 8 -112 -12 -34 -14 -50 -5 -63 27 -45
24 -94 -11 -174 -28 -64 -32 -81 -22 -99 16 -32 34 -35 45 -7 8 18 10 19 10 5
1 -10 -6 -32 -15 -49 l-16 -32 -13 31 c-19 46 -31 47 -55 6 -21 -36 -22 -37
-37 -18 -8 11 -18 27 -23 35 -6 11 -11 12 -23 2 -21 -17 -24 -9 -31 78 -13
151 -14 232 -3 221 6 -6 15 -11 19 -11 15 0 8 38 -9 56 -24 23 -30 139 -7 130
19 -7 18 42 -1 68 -19 26 -19 80 0 110 26 39 10 56 -50 56 l-53 0 -6 -57 c-11
-100 -10 -525 1 -593 6 -36 21 -82 32 -102 12 -20 18 -39 13 -42 -13 -8 -253
-16 -294 -9 -20 3 -39 12 -42 20 -4 8 -11 90 -17 182 -9 139 -12 240 -18 574
l-1 27 -234 0 -234 0 -6 -33 c-3 -18 -6 -152 -6 -298 -1 -249 9 -364 35 -431
6 -15 -8 -17 -167 -17 -198 -1 -205 1 -218 70 -8 42 -26 513 -24 647 l0 62
-57 0 c-36 0 -59 -5 -63 -12 -5 -10 -7 -10 -12 0 -9 19 -24 14 -24 -9z m40
-159 c0 -5 -7 -10 -15 -10 -8 0 -15 5 -15 10 0 6 7 10 15 10 8 0 15 -4 15 -10z
m27 -92 c-3 -8 -6 -5 -6 6 -1 11 2 17 5 13 3 -3 4 -12 1 -19z m-35 -63 c4 -17
1 -25 -8 -25 -9 0 -13 10 -12 25 1 14 5 25 9 25 4 0 9 -11 11 -25z m48 -83 c0
-10 -10 -23 -21 -30 -20 -13 -21 -13 -6 8 9 12 13 29 10 38 -4 10 -2 13 5 8 7
-4 12 -15 12 -24z m2520 -508 c0 -8 -4 -12 -10 -9 -5 3 -10 10 -10 16 0 5 5 9
10 9 6 0 10 -7 10 -16z m60 6 c0 -5 -4 -10 -10 -10 -5 0 -10 5 -10 10 0 6 5
10 10 10 6 0 10 -4 10 -10z m60 0 c0 -5 -4 -10 -10 -10 -5 0 -10 5 -10 10 0 6
5 10 10 10 6 0 10 -4 10 -10z m-183 -22 c-3 -8 -6 -5 -6 6 -1 11 2 17 5 13 3
-3 4 -12 1 -19z m243 18 c0 -11 -19 -15 -25 -6 -3 5 1 10 9 10 9 0 16 -2 16
-4z m-966 -31 c-4 -8 -7 -15 -9 -15 -2 0 -5 7 -9 15 -3 9 0 15 9 15 9 0 12 -6
9 -15z m66 11 c0 -3 -4 -8 -10 -11 -5 -3 -10 -1 -10 4 0 6 5 11 10 11 6 0 10
-2 10 -4z m-1403 -68 c-2 -13 -4 -5 -4 17 -1 22 1 32 4 23 2 -10 2 -28 0 -40z
m2217 31 c9 8 19 11 23 7 4 -3 -2 -12 -12 -20 -14 -10 -23 -11 -36 -3 -13 8
-21 8 -32 -1 -13 -12 -27 -7 -27 9 0 5 7 6 15 3 8 -4 17 1 21 10 6 15 7 15 19
-1 11 -15 15 -15 29 -4z m-1757 -11 c-3 -8 -6 -5 -6 6 -1 11 2 17 5 13 3 -3 4
-12 1 -19z m-545 -46 c-34 -29 -37 -58 -7 -78 19 -12 25 -24 24 -48 -2 -27 -2
-28 -6 -6 -6 33 -21 50 -44 50 -16 0 -42 -30 -36 -41 1 -2 -4 2 -10 10 -18 21
-16 29 10 33 16 2 23 11 27 33 5 29 52 87 58 72 2 -4 -5 -15 -16 -25z m-205
-29 c-3 -10 -5 -2 -5 17 0 19 2 27 5 18 2 -10 2 -26 0 -35z m257 12 c-4 -8 -7
-15 -9 -15 -2 0 -5 7 -9 15 -3 9 0 15 9 15 9 0 12 -6 9 -15z m-327 -17 c-3 -8
-6 -5 -6 6 -1 11 2 17 5 13 3 -3 4 -12 1 -19z m-40 -75 c-3 -10 -5 -2 -5 17 0
19 2 27 5 18 2 -10 2 -26 0 -35z m728 29 c-3 -3 -11 0 -18 7 -9 10 -8 11 6 5
10 -3 15 -9 12 -12z m-352 1 c-7 -2 -19 -2 -25 0 -7 3 -2 5 12 5 14 0 19 -2
13 -5z m298 -27 c-9 -18 -17 -27 -19 -20 -4 16 15 54 27 54 5 0 1 -15 -8 -34z
m-274 -13 c-3 -10 -5 -4 -5 12 0 17 2 24 5 18 2 -7 2 -21 0 -30z m1298 -13
c-3 -5 -12 -10 -18 -10 -7 0 -6 4 3 10 19 12 23 12 15 0z m-1475 -32 c28 17
39 15 12 -4 -29 -20 -30 -69 -2 -84 11 -6 20 -20 19 -33 0 -22 0 -22 -10 1 -5
13 -17 26 -27 29 -14 3 -17 12 -14 33 3 21 -1 32 -17 42 -12 7 -21 16 -21 20
0 5 9 3 20 -4 16 -10 24 -10 40 0z m440 2 c0 -5 -8 -10 -18 -10 -10 0 -23 -5
-30 -12 -9 -9 -12 -9 -12 0 0 12 28 31 48 32 6 0 12 -4 12 -10z m-370 -44 c0
-26 5 -36 20 -41 14 -4 20 -14 19 -33 -2 -24 -2 -24 -6 -4 -4 20 -35 47 -44
38 -2 -3 -4 13 -4 35 -1 21 3 39 7 39 4 0 8 -15 8 -34z m1375 -6 c-3 -5 -11
-10 -16 -10 -6 0 -7 5 -4 10 3 6 11 10 16 10 6 0 7 -4 4 -10z m-1668 -52 c-2
-13 -4 -5 -4 17 -1 22 1 32 4 23 2 -10 2 -28 0 -40z m173 -37 c0 -15 -9 -36
-20 -46 -11 -10 -20 -30 -20 -45 0 -15 -7 -34 -16 -41 -9 -7 -20 -22 -24 -34
-7 -15 -9 -16 -9 -4 -1 9 8 28 19 42 21 27 26 62 10 72 -5 3 -10 11 -10 17 0
7 6 6 15 -2 23 -19 47 6 43 44 -2 23 -9 32 -25 34 -25 4 -25 4 -17 25 9 24 54
-28 54 -62z m461 49 c5 0 9 -5 9 -12 0 -9 -3 -9 -12 0 -7 7 -20 12 -30 12 -11
0 -15 5 -12 15 5 13 8 13 21 0 8 -8 19 -15 24 -15z m106 -6 c-3 -3 -12 -4 -19
-1 -8 3 -5 6 6 6 11 1 17 -2 13 -5z m-780 -56 c-3 -8 -6 -5 -6 6 -1 11 2 17 5
13 3 -3 4 -12 1 -19z m298 -8 c3 -5 1 -10 -4 -10 -6 0 -11 5 -11 10 0 6 2 10
4 10 3 0 8 -4 11 -10z m380 -10 c-3 -5 -12 -10 -20 -10 -8 0 -19 -8 -24 -17
-9 -15 -10 -16 -11 -2 0 9 10 21 23 27 29 14 40 15 32 2z m-417 -27 c-6 -7
-12 -13 -13 -13 -2 0 -5 6 -8 13 -3 7 3 13 14 13 13 0 15 -3 7 -13z m74 -18
c-6 -49 -17 -51 -17 -4 0 21 5 39 10 39 7 0 9 -15 7 -35z m-72 -35 c0 -5 -4
-10 -10 -10 -5 0 -10 5 -10 10 0 6 5 10 10 10 6 0 10 -4 10 -10z m396 -14 c10
-8 16 -18 11 -22 -4 -4 -7 -2 -7 4 0 7 -6 12 -14 12 -8 0 -18 5 -21 10 -9 15
8 12 31 -4z m-447 -45 c-2 -34 -2 -34 -6 -6 -3 17 -10 36 -15 43 -8 9 -7 11 6
6 11 -4 16 -17 15 -43z m-74 -31 c3 -5 1 -10 -4 -10 -6 0 -11 5 -11 10 0 6 2
10 4 10 3 0 8 -4 11 -10z m45 -24 c0 -11 -19 -15 -25 -6 -3 5 1 10 9 10 9 0
16 -2 16 -4z m437 -28 c-3 -8 -6 -5 -6 6 -1 11 2 17 5 13 3 -3 4 -12 1 -19z
m-482 -58 c3 -5 1 -10 -4 -10 -6 0 -11 5 -11 10 0 6 2 10 4 10 3 0 8 -4 11
-10z m1545 -264 c0 -3 -4 -8 -10 -11 -5 -3 -10 -1 -10 4 0 6 5 11 10 11 6 0
10 -2 10 -4z"/>
<path d="M1520 2058 c0 -23 11 -48 21 -48 14 0 11 24 -6 46 -12 16 -14 17 -15
2z"/>
<path d="M2628 2063 c7 -3 16 -2 19 1 4 3 -2 6 -13 5 -11 0 -14 -3 -6 -6z"/>
<path d="M2682 2058 c6 -18 28 -21 28 -4 0 9 -7 16 -16 16 -9 0 -14 -5 -12
-12z"/>
<path d="M2742 2053 c5 -25 28 -28 28 -4 0 12 -6 21 -16 21 -9 0 -14 -7 -12
-17z"/>
<path d="M2802 2053 c5 -25 28 -28 28 -4 0 12 -6 21 -16 21 -9 0 -14 -7 -12
-17z"/>
<path d="M2864 2055 c-3 -8 -3 -19 1 -25 11 -18 25 -11 25 15 0 27 -17 34 -26
10z"/>
<path d="M2926 2053 c-9 -10 -7 -43 3 -43 11 0 21 39 11 45 -4 2 -10 2 -14 -2z"/>
<path d="M2980 2026 c0 -14 5 -28 10 -31 6 -4 10 7 10 24 0 17 -4 31 -10 31
-5 0 -10 -11 -10 -24z"/>
<path d="M2590 2006 c0 -14 5 -28 10 -31 6 -3 10 -3 10 2 0 4 3 18 6 31 5 16
2 22 -10 22 -10 0 -16 -9 -16 -24z"/>
<path d="M2654 2017 c-7 -20 -2 -47 11 -50 14 -3 19 43 6 56 -7 7 -12 6 -17
-6z"/>
<path d="M2715 2002 c-7 -23 4 -54 16 -46 12 7 12 51 0 59 -5 3 -12 -3 -16
-13z"/>
<path d="M1574 1976 c-6 -26 10 -66 28 -66 6 0 8 10 4 28 -4 15 -8 35 -9 45
-2 25 -16 21 -23 -7z"/>
<path d="M2775 1990 c-3 -6 -3 -20 0 -31 6 -17 9 -19 16 -8 12 19 11 49 0 49
-6 0 -13 -5 -16 -10z"/>
<path d="M2830 1976 c0 -24 12 -46 21 -40 15 9 10 54 -6 54 -8 0 -15 -6 -15
-14z"/>
<path d="M1470 1967 c0 -19 26 -52 32 -41 8 13 -9 54 -22 54 -5 0 -10 -6 -10
-13z"/>
<path d="M2892 1958 c5 -32 28 -35 28 -4 0 17 -5 26 -16 26 -10 0 -14 -7 -12
-22z"/>
<path d="M2950 1945 c0 -14 5 -25 10 -25 6 0 10 11 10 25 0 14 -4 25 -10 25
-5 0 -10 -11 -10 -25z"/>
<path d="M2554 1936 c-3 -8 -1 -23 5 -33 9 -17 10 -16 19 7 5 14 8 28 5 33 -7
12 -23 8 -29 -7z"/>
<path d="M2620 1916 c0 -14 5 -28 10 -31 6 -3 10 -3 10 2 0 4 3 18 6 31 5 16
2 22 -10 22 -10 0 -16 -9 -16 -24z"/>
<path d="M2680 1905 c0 -16 6 -25 15 -25 9 0 15 9 15 25 0 16 -6 25 -15 25 -9
0 -15 -9 -15 -25z"/>
<path d="M2742 1898 c5 -32 28 -35 28 -4 0 17 -5 26 -16 26 -10 0 -14 -7 -12
-22z"/>
<path d="M2804 1895 c-6 -15 2 -35 14 -35 4 0 9 11 10 25 2 27 -15 34 -24 10z"/>
<path d="M2864 1896 c-7 -18 1 -46 14 -46 10 0 10 46 0 56 -4 4 -10 -1 -14
-10z"/>
<path d="M2926 1893 c-9 -9 -7 -41 3 -47 5 -3 11 6 14 19 4 25 -4 40 -17 28z"/>
<path d="M1530 1866 c0 -13 7 -29 15 -36 12 -10 15 -9 15 8 0 27 -10 52 -21
52 -5 0 -9 -11 -9 -24z"/>
<path d="M2980 1861 c0 -11 5 -23 10 -26 6 -4 10 5 10 19 0 14 -4 26 -10 26
-5 0 -10 -9 -10 -19z"/>
<path d="M2590 1836 c0 -14 4 -27 9 -30 10 -6 23 33 15 46 -10 16 -24 7 -24
-16z"/>
<path d="M2650 1826 c0 -30 15 -42 24 -20 10 27 7 44 -9 44 -9 0 -15 -9 -15
-24z"/>
<path d="M2710 1826 c0 -24 12 -46 21 -40 15 9 10 54 -6 54 -8 0 -15 -6 -15
-14z"/>
<path d="M2774 1826 c-8 -21 3 -49 16 -41 5 3 10 15 10 25 0 25 -18 36 -26 16z"/>
<path d="M1584 1796 c-6 -26 10 -66 28 -66 6 0 8 12 4 31 -3 17 -6 38 -6 45 0
23 -19 16 -26 -10z"/>
<path d="M2832 1798 c2 -13 8 -23 13 -23 6 0 11 10 13 23 2 15 -2 22 -13 22
-11 0 -15 -7 -13 -22z"/>
<path d="M2894 1807 c-3 -9 -3 -25 1 -34 6 -16 8 -16 18 5 7 16 7 26 -1 34 -8
8 -13 7 -18 -5z"/>
<path d="M2950 1786 c0 -14 5 -28 10 -31 6 -4 10 7 10 24 0 17 -4 31 -10 31
-5 0 -10 -11 -10 -24z"/>
<path d="M1480 1781 c0 -20 27 -48 37 -37 9 8 -14 56 -27 56 -5 0 -10 -8 -10
-19z"/>
<path d="M2560 1751 c0 -28 18 -46 21 -21 4 34 3 44 -8 48 -9 2 -13 -7 -13
-27z"/>
<path d="M2620 1746 c0 -30 15 -42 24 -20 10 27 7 44 -9 44 -9 0 -15 -9 -15
-24z"/>
<path d="M2680 1735 c0 -16 6 -25 15 -25 9 0 15 9 15 25 0 16 -6 25 -15 25 -9
0 -15 -9 -15 -25z"/>
<path d="M2740 1725 c0 -16 6 -25 15 -25 9 0 15 9 15 25 0 16 -6 25 -15 25 -9
0 -15 -9 -15 -25z"/>
<path d="M2806 1743 c-12 -13 -6 -53 9 -53 9 0 15 9 15 24 0 26 -12 40 -24 29z"/>
<path d="M2864 1726 c-7 -19 3 -52 13 -42 12 11 13 45 3 51 -6 4 -13 -1 -16
-9z"/>
<path d="M2920 1706 c0 -14 5 -26 10 -26 6 0 10 7 10 15 0 8 0 18 1 22 0 4 -4
9 -10 11 -6 2 -11 -8 -11 -22z"/>
<path d="M1541 1702 c-9 -16 -7 -25 9 -44 l19 -23 1 30 c0 17 -4 36 -9 44 -7
11 -11 10 -20 -7z"/>
<path d="M2974 1705 c-7 -17 4 -37 17 -30 12 8 12 45 -1 45 -6 0 -13 -7 -16
-15z"/>
<path d="M2590 1659 c0 -38 24 -35 28 4 2 19 -1 27 -12 27 -11 0 -16 -10 -16
-31z"/>
<path d="M2652 1655 c2 -14 8 -26 13 -26 6 0 11 12 13 26 2 18 -1 25 -13 25
-12 0 -15 -7 -13 -25z"/>
<path d="M2714 1667 c-7 -20 -2 -47 11 -50 14 -3 19 43 6 56 -7 7 -12 6 -17
-6z"/>
<path d="M2777 1664 c-4 -4 -7 -18 -7 -31 0 -28 23 -27 28 1 4 20 -11 40 -21
30z"/>
<path d="M2830 1630 c0 -16 4 -30 9 -30 10 0 22 40 15 52 -11 18 -24 6 -24
-22z"/>
<path d="M1601 1631 c-15 -27 -14 -54 3 -77 18 -24 25 -17 33 31 4 27 3 36 -5
31 -8 -4 -10 -2 -6 7 9 23 -14 30 -25 8z"/>
<path d="M2890 1621 c0 -17 5 -31 10 -31 6 0 10 9 10 20 0 11 0 23 1 27 0 4
-4 9 -10 11 -6 2 -11 -10 -11 -27z"/>
<path d="M2946 1624 c-7 -19 2 -37 15 -29 12 8 12 45 0 45 -5 0 -12 -7 -15
-16z"/>
<path d="M1496 1612 c-8 -24 10 -66 25 -57 13 9 11 38 -5 60 -13 18 -14 18
-20 -3z"/>
<path d="M2560 1580 c0 -16 4 -30 9 -30 10 0 22 40 15 52 -11 18 -24 6 -24
-22z"/>
<path d="M2620 1576 c0 -14 5 -28 10 -31 6 -3 10 -3 10 2 0 4 3 18 6 31 5 16
2 22 -10 22 -10 0 -16 -9 -16 -24z"/>
<path d="M2680 1566 c0 -14 5 -28 10 -31 6 -3 10 0 10 9 0 8 3 21 6 30 4 11 1
16 -10 16 -10 0 -16 -9 -16 -24z"/>
<path d="M2740 1555 c0 -28 15 -34 24 -9 10 25 7 34 -9 34 -9 0 -15 -9 -15
-25z"/>
<path d="M2807 1573 c-11 -10 -8 -53 3 -53 6 0 10 14 10 30 0 31 -2 35 -13 23z"/>
<path d="M2855 1550 c-7 -23 2 -43 16 -35 12 8 12 55 0 55 -5 0 -12 -9 -16
-20z"/>
<path d="M2917 1553 c-10 -10 -8 -43 2 -43 9 0 21 24 21 41 0 11 -14 12 -23 2z"/>
<path d="M1553 1527 c-12 -25 3 -67 22 -67 14 0 26 46 18 66 -8 22 -30 23 -40
1z"/>
<path d="M2970 1525 c0 -14 5 -25 10 -25 6 0 10 11 10 25 0 14 -4 25 -10 25
-5 0 -10 -11 -10 -25z"/>
<path d="M1450 1511 c0 -35 24 -60 34 -35 9 22 -1 51 -19 58 -11 4 -15 -2 -15
-23z"/>
<path d="M2534 1516 c-7 -20 2 -46 16 -46 13 0 13 47 0 55 -6 3 -13 -1 -16 -9z"/>
<path d="M2592 1496 c2 -15 8 -26 13 -26 15 0 12 43 -3 48 -10 3 -13 -4 -10
-22z"/>
<path d="M2652 1486 c2 -15 8 -26 13 -26 15 0 12 43 -3 48 -10 3 -13 -4 -10
-22z"/>
<path d="M2710 1475 c0 -14 5 -25 10 -25 6 0 10 11 10 25 0 14 -4 25 -10 25
-5 0 -10 -11 -10 -25z"/>
<path d="M2770 1470 c0 -33 15 -41 22 -12 6 21 -1 42 -13 42 -5 0 -9 -13 -9
-30z"/>
<path d="M2825 1480 c-9 -14 4 -52 16 -45 12 8 12 55 0 55 -6 0 -13 -5 -16
-10z"/>
<path d="M2880 1454 c0 -31 23 -28 28 4 2 15 -2 22 -12 22 -11 0 -16 -9 -16
-26z"/>
<path d="M2947 1473 c-11 -10 -8 -53 3 -53 6 0 10 14 10 30 0 31 -2 35 -13 23z"/>
<path d="M1510 1440 c-9 -17 -9 -29 -1 -46 14 -31 25 -30 40 3 10 23 9 29 -7
46 -20 19 -20 19 -32 -3z"/>
<path d="M2992 1440 c0 -14 2 -19 5 -12 2 6 2 18 0 25 -3 6 -5 1 -5 -13z"/>
<path d="M2570 1426 c0 -8 5 -18 10 -21 6 -3 10 3 10 14 0 12 -4 21 -10 21 -5
0 -10 -6 -10 -14z"/>
<path d="M2620 1406 c0 -14 5 -26 10 -26 6 0 10 7 10 15 0 8 0 18 1 22 0 4 -4
9 -10 11 -6 2 -11 -8 -11 -22z"/>
<path d="M2674 1405 c-3 -8 -3 -19 1 -25 11 -18 25 -11 25 15 0 27 -17 34 -26
10z"/>
<path d="M2730 1385 c0 -16 6 -25 15 -25 9 0 15 9 15 25 0 16 -6 25 -15 25 -9
0 -15 -9 -15 -25z"/>
<path d="M2797 1403 c-13 -12 -7 -43 8 -43 9 0 15 9 15 25 0 24 -10 32 -23 18z"/>
<path d="M2923 1073 c-18 -7 -16 -52 2 -59 8 -4 22 -1 30 6 10 9 15 9 15 1 0
-6 7 -11 15 -11 10 0 15 10 15 31 0 27 -3 31 -22 26 -12 -4 -27 -2 -32 2 -6 5
-17 6 -23 4z"/>
<path d="M2437 1003 c-9 -8 -9 -58 -1 -66 4 -3 15 -2 25 4 23 12 25 55 3 63
-19 7 -19 7 -27 -1z"/>
<path d="M2497 1003 c-4 -3 -7 -19 -7 -34 0 -29 21 -44 39 -26 16 16 13 54 -5
61 -19 7 -19 7 -27 -1z"/>
<path d="M2557 1003 c-11 -10 -8 -48 4 -60 17 -17 39 -4 39 21 0 32 -27 56
-43 39z"/>
<path d="M2617 1003 c-11 -10 -8 -61 3 -68 16 -10 40 14 40 40 0 13 -7 26 -16
29 -19 7 -19 7 -27 -1z"/>
<path d="M2677 1003 c-13 -12 -7 -61 8 -67 23 -8 42 38 25 59 -14 16 -23 19
-33 8z"/>
<path d="M2730 971 c0 -16 6 -31 14 -34 19 -8 26 1 26 35 0 21 -5 28 -20 28
-15 0 -20 -7 -20 -29z"/>
<path d="M2783 984 c-7 -20 9 -49 28 -49 22 0 18 59 -4 63 -9 2 -20 -4 -24
-14z"/>
<path d="M2840 971 c0 -31 21 -46 38 -29 8 8 15 8 26 -1 20 -17 36 -6 36 25 0
28 -27 44 -42 23 -7 -11 -11 -11 -15 -1 -2 6 -13 12 -24 12 -14 0 -19 -7 -19
-29z"/>
<path d="M2952 968 c4 -43 33 -46 33 -3 0 21 -5 31 -18 33 -15 3 -18 -2 -15
-30z"/>
<path d="M2387 844 c-4 -4 -7 -20 -7 -36 0 -25 4 -29 23 -26 17 2 22 10 22 33
0 29 -22 45 -38 29z"/>
<path d="M2447 844 c-4 -4 -7 -20 -7 -36 0 -25 4 -29 23 -26 17 2 22 10 22 33
0 29 -22 45 -38 29z"/>
<path d="M2504 836 c-10 -26 0 -51 21 -51 16 0 20 7 20 30 0 33 -30 49 -41 21z"/>
<path d="M2564 836 c-10 -26 0 -51 21 -51 16 0 20 7 20 30 0 33 -30 49 -41 21z"/>
<path d="M2624 836 c-10 -26 0 -51 21 -51 16 0 20 7 20 30 0 33 -30 49 -41 21z"/>
<path d="M2684 836 c-10 -26 0 -51 21 -51 16 0 20 7 20 30 0 33 -30 49 -41 21z"/>
<path d="M2747 844 c-13 -14 -7 -52 10 -58 19 -8 34 11 31 39 -3 20 -28 32
-41 19z"/>
<path d="M2802 818 c4 -43 33 -46 33 -3 0 21 -5 31 -18 33 -15 3 -18 -2 -15
-30z"/>
<path d="M2857 844 c-11 -12 -8 -41 6 -52 18 -16 39 1 35 29 -3 23 -27 37 -41
23z"/>
<path d="M2910 822 c0 -32 27 -52 36 -27 9 23 0 50 -19 53 -13 3 -17 -3 -17
-26z"/>
<path d="M2963 834 c-7 -18 7 -46 25 -52 8 -2 12 9 12 32 0 38 -25 51 -37 20z"/>
<path d="M2726 773 c-10 -10 -7 -61 4 -68 15 -9 40 14 40 36 0 19 -33 43 -44
32z"/>
<path d="M2786 773 c-3 -4 -6 -18 -6 -33 0 -32 7 -41 26 -33 8 3 14 18 14 33
0 26 -21 46 -34 33z"/>
<path d="M2834 754 c-8 -29 7 -49 30 -41 21 8 21 53 0 61 -23 9 -23 8 -30 -20z"/>
<path d="M2897 773 c-4 -3 -7 -17 -7 -30 0 -28 28 -42 42 -22 7 11 11 11 15 2
7 -18 28 -16 43 3 11 13 10 19 -7 36 -22 22 -43 17 -44 -10 0 -12 -3 -11 -9 6
-9 22 -21 28 -33 15z"/>
<path d="M2602 738 c2 -25 8 -33 23 -33 16 0 20 7 20 30 0 24 -5 31 -23 33
-21 3 -23 0 -20 -30z"/>
<path d="M2660 740 c0 -34 26 -52 41 -29 15 24 6 54 -18 57 -20 3 -23 -1 -23
-28z"/>
<path d="M1572 718 c-15 -15 -16 -54 -2 -63 18 -11 41 16 38 43 -3 29 -18 38
-36 20z"/>
<path d="M2929 698 c-10 -12 -18 -13 -32 -4 -14 9 -20 8 -27 -4 -9 -13 -11
-13 -20 0 -7 12 -13 13 -28 3 -15 -9 -22 -9 -31 0 -8 8 -16 9 -29 1 -12 -8
-22 -8 -35 0 -13 8 -20 8 -27 -3 -7 -12 -11 -12 -24 -2 -13 11 -19 11 -31 1
-12 -10 -18 -10 -30 0 -13 10 -19 10 -33 -3 -15 -13 -19 -13 -30 0 -12 13 -16
12 -31 -1 -14 -12 -20 -13 -29 -4 -10 10 -17 10 -32 0 -12 -7 -21 -8 -25 -2
-3 6 -15 10 -26 10 -15 0 -19 -7 -19 -35 0 -29 4 -35 20 -35 12 0 24 10 30 23
l9 22 0 -22 c1 -31 39 -31 50 -1 l8 23 7 -23 c8 -24 41 -30 49 -9 3 9 7 9 20
-2 14 -11 20 -11 32 -1 12 10 18 10 30 0 12 -10 19 -10 27 -2 6 6 24 8 39 5
18 -3 29 -1 29 6 0 8 6 8 21 -1 17 -11 22 -10 33 5 12 15 14 16 20 2 7 -18 33
-20 39 -2 3 9 8 9 21 -3 16 -13 20 -12 30 2 11 15 13 15 23 0 8 -14 13 -15 26
-4 9 8 21 10 28 6 8 -5 7 -9 -5 -16 -23 -13 -22 -71 2 -66 14 3 17 16 20 71 2
62 -7 83 -23 56 -5 -6 -11 -4 -19 7 -11 15 -14 15 -27 2z"/>
<path d="M2904 616 c-10 -26 1 -51 21 -51 23 0 32 30 15 50 -16 19 -29 19 -36
1z"/>
<path d="M2623 613 c-18 -6 -16 -48 3 -64 13 -10 17 -10 25 2 22 35 4 73 -28
62z"/>
<path d="M2674 606 c-10 -26 0 -51 21 -51 16 0 20 7 20 30 0 33 -30 49 -41 21z"/>
<path d="M2734 606 c-10 -26 0 -51 21 -51 16 0 20 7 20 30 0 33 -30 49 -41 21z"/>
<path d="M2790 591 c0 -35 16 -49 36 -30 18 19 7 59 -17 59 -14 0 -19 -7 -19
-29z"/>
<path d="M2847 608 c-7 -23 5 -48 24 -48 14 0 19 7 19 30 0 23 -5 30 -19 30
-11 0 -21 -6 -24 -12z"/>
<path d="M2430 575 c0 -32 3 -36 23 -33 17 2 22 10 22 33 0 23 -5 31 -22 33
-20 3 -23 -1 -23 -33z"/>
<path d="M2492 578 c2 -25 8 -33 23 -33 16 0 20 7 20 30 0 24 -5 31 -23 33
-21 3 -23 0 -20 -30z"/>
<path d="M2550 586 c0 -26 24 -51 40 -41 5 3 10 19 10 36 0 24 -4 29 -25 29
-20 0 -25 -5 -25 -24z"/>
<path d="M1560 541 c-22 -42 -6 -70 30 -51 24 13 27 55 4 64 -22 8 -22 8 -34
-13z"/>
<path d="M2783 543 c-16 -6 -17 -59 -3 -68 6 -4 17 -2 23 4 7 5 22 8 34 5 11
-3 24 -1 28 6 5 8 10 8 21 -1 11 -9 18 -8 29 1 11 10 19 10 27 2 18 -18 58 7
58 37 0 18 -3 22 -9 12 -6 -9 -11 -10 -15 -2 -11 17 -36 13 -36 -6 -1 -17 -1
-17 -14 0 -16 21 -32 22 -44 1 -8 -15 -10 -15 -15 0 -8 19 -34 21 -40 4 -3
-10 -7 -10 -18 -2 -8 6 -20 9 -26 7z"/>
<path d="M1597 462 c-29 -32 -18 -69 17 -56 22 9 31 44 14 60 -12 13 -17 12
-31 -4z"/>
<path d="M2867 466 c-9 -10 -18 -12 -22 -6 -11 17 -35 11 -44 -12 l-8 -22 -5
22 c-8 29 -35 28 -44 0 l-7 -23 -8 23 c-10 26 -22 28 -39 7 -10 -12 -16 -12
-26 -4 -18 15 -44 4 -45 -18 0 -14 -2 -13 -9 5 -11 25 -38 30 -46 7 -5 -13 -8
-13 -21 1 -22 21 -38 12 -41 -23 -2 -24 1 -32 18 -36 13 -3 23 0 27 9 3 10 9
11 17 5 14 -12 87 -11 104 2 8 6 17 5 26 -2 11 -9 17 -8 29 4 10 9 18 11 22 5
8 -13 45 -13 45 0 0 6 8 5 21 -2 17 -11 22 -10 35 6 8 11 14 15 14 8 0 -13 79
-13 97 0 7 5 14 5 18 -2 13 -21 25 -9 25 25 0 24 -5 35 -15 35 -8 0 -15 -7
-15 -17 0 -15 -1 -15 -19 1 -16 15 -19 15 -31 1 -11 -14 -14 -14 -24 1 -11 15
-14 15 -29 0z"/>
<path d="M2321 436 c-15 -18 -11 -58 6 -63 6 -2 21 5 32 16 17 17 21 18 21 5
0 -28 45 -13 48 17 4 31 -27 50 -42 26 -8 -13 -13 -13 -31 -1 -19 13 -24 13
-34 0z"/>
<path d="M2442 418 c2 -25 8 -33 23 -33 16 0 20 7 20 30 0 24 -5 31 -23 33
-21 3 -23 0 -20 -30z"/>
<path d="M2846 393 c-3 -4 -6 -19 -6 -35 0 -21 5 -28 20 -28 10 0 24 8 29 18
10 16 10 16 11 -1 0 -30 35 -16 38 16 4 34 -23 48 -43 21 -8 -11 -15 -14 -15
-8 0 14 -25 25 -34 17z"/>
<path d="M2957 393 c-10 -10 -8 -51 2 -58 12 -7 41 22 41 40 0 7 -7 16 -16 19
-19 7 -19 7 -27 -1z"/>
<path d="M1562 381 c-6 -3 -13 -18 -17 -32 -7 -30 18 -47 41 -28 30 24 8 80
-24 60z"/>
<path d="M2665 367 c-12 -18 -15 -19 -15 -4 0 11 -8 17 -25 17 -21 0 -25 -5
-25 -30 0 -36 27 -52 45 -26 10 13 14 14 18 3 7 -18 -26 -37 -53 -30 -15 4
-26 0 -32 -11 -9 -16 -11 -16 -23 0 -11 16 -15 16 -29 5 -22 -18 -20 -48 3
-61 16 -8 22 -6 30 7 8 15 12 16 22 6 19 -19 37 -16 45 9 l7 23 8 -23 c10 -26
22 -28 39 -7 9 11 16 12 31 2 16 -10 21 -9 29 2 7 12 11 12 24 2 12 -10 20
-10 29 -3 7 6 22 9 34 6 11 -3 24 -1 28 6 5 8 10 8 21 -1 7 -6 22 -8 31 -4 10
4 34 9 53 11 31 3 33 1 18 -10 -17 -13 -25 -56 -12 -69 3 -3 12 -3 19 -1 10 4
14 27 14 76 0 52 -3 68 -11 60 -7 -7 -17 -8 -29 -2 -12 7 -20 7 -24 0 -3 -6
-17 -7 -30 -4 -12 3 -26 1 -29 -5 -5 -7 -13 -7 -27 2 -16 10 -21 9 -28 -2 -7
-10 -13 -11 -29 -2 -17 9 -23 8 -32 -6 -8 -13 -13 -14 -16 -5 -7 14 -44 16
-44 2 0 -5 -4 -10 -10 -10 -5 0 -10 7 -10 15 0 8 7 15 15 15 20 0 20 56 0 64
-8 3 -21 -4 -30 -17z"/>
<path d="M2724 376 c-10 -26 1 -51 21 -51 37 0 29 64 -8 65 -4 0 -10 -6 -13
-14z"/>
<path d="M2787 384 c-10 -10 -9 -52 2 -58 20 -13 42 7 39 33 -3 25 -26 39 -41
25z"/>
<path d="M2544 366 c-3 -9 -3 -27 0 -41 6 -22 9 -24 27 -15 14 8 19 19 17 38
-3 30 -35 43 -44 18z"/>
<path d="M1587 293 c-13 -12 -7 -63 6 -63 20 0 37 22 37 47 0 22 -27 33 -43
16z"/>
<path d="M2391 273 c-9 -15 -12 -15 -20 -5 -16 25 -46 10 -46 -23 0 -35 24
-45 49 -20 9 10 16 12 16 5 0 -6 10 -10 23 -8 37 5 33 67 -5 68 -4 0 -12 -8
-17 -17z"/>
<path d="M2454 276 c-10 -26 1 -51 21 -51 15 0 21 8 23 33 3 27 0 32 -18 32
-11 0 -23 -6 -26 -14z"/>
<path d="M2863 243 c-16 -6 -17 -59 -1 -69 6 -4 16 0 23 9 8 12 15 13 23 5 17
-17 42 -1 42 26 0 32 -18 43 -38 23 -13 -13 -17 -14 -26 -3 -6 8 -17 12 -23 9z"/>
<path d="M2797 234 c-4 -4 -7 -20 -7 -36 0 -25 4 -29 23 -26 17 2 22 10 22 33
0 29 -22 45 -38 29z"/>
<path d="M2621 217 c-18 -18 -13 -54 8 -60 20 -5 31 10 31 43 0 22 -23 33 -39
17z"/>
<path d="M2674 204 c-8 -29 7 -49 30 -41 10 4 16 18 16 37 0 40 -36 43 -46 4z"/>
<path d="M2737 223 c-20 -20 2 -67 26 -57 24 9 23 64 -1 64 -10 0 -22 -3 -25
-7z"/>
<path d="M2497 213 c-11 -10 -8 -61 3 -68 16 -10 40 14 40 40 0 13 -7 26 -16
29 -19 7 -19 7 -27 -1z"/>
<path d="M2554 206 c-10 -26 0 -51 21 -51 16 0 20 7 20 30 0 33 -30 49 -41 21z"/>
<path d="M1547 203 c-10 -10 -8 -63 2 -63 27 0 41 15 41 41 0 21 -5 29 -18 29
-10 0 -22 -3 -25 -7z"/>
<path d="M2886 161 c-3 -4 -17 -6 -31 -3 -15 2 -25 0 -25 -7 0 -8 -6 -7 -21 1
-17 11 -22 10 -34 -5 -8 -12 -15 -14 -20 -8 -8 15 -45 14 -45 0 0 -8 -5 -8
-15 1 -18 15 -45 6 -45 -16 0 -13 -4 -11 -20 7 -20 24 -20 24 -36 4 -11 -14
-18 -16 -21 -7 -6 16 -40 16 -46 0 -3 -10 -7 -10 -21 1 -14 12 -19 12 -34 -2
-13 -12 -22 -13 -36 -5 -15 9 -22 7 -33 -8 -11 -15 -15 -16 -22 -5 -14 22 -46
9 -49 -22 -4 -35 21 -46 48 -22 12 11 20 13 20 7 0 -15 37 -16 45 -2 5 8 11 7
20 0 9 -8 20 -8 32 -2 10 6 30 8 45 5 20 -4 30 -1 34 11 6 15 7 15 19 -1 13
-17 14 -17 32 -1 15 14 22 15 31 6 9 -9 17 -10 30 -1 11 7 24 7 34 2 11 -6 20
-4 28 6 9 11 16 12 26 4 7 -6 18 -8 24 -4 7 4 37 9 68 11 32 2 68 5 82 7 14 2
31 5 38 5 6 1 12 12 12 25 0 18 -6 23 -30 25 -18 1 -30 -2 -30 -10 0 -9 -3 -9
-12 0 -14 14 -35 16 -42 3z"/>
<path d="M1582 118 c-7 -7 -12 -22 -12 -35 0 -29 35 -32 50 -4 19 37 -10 67
-38 39z"/>
<path d="M2917 83 c-11 -11 -17 -13 -17 -5 0 17 -29 15 -36 -3 -5 -13 -8 -13
-21 1 -17 17 -43 3 -44 -25 0 -11 -3 -9 -9 7 -11 26 -35 29 -44 5 -6 -15 -8
-15 -19 2 -13 16 -14 16 -30 0 -15 -14 -20 -15 -33 -4 -14 11 -19 10 -34 -9
-18 -21 -18 -21 -23 -1 -5 17 -9 19 -26 9 -13 -6 -21 -21 -21 -35 0 -20 5 -25
25 -25 14 0 25 5 25 12 0 9 3 9 12 0 19 -19 38 -14 48 10 6 16 9 18 9 7 1 -24
33 -34 47 -15 8 12 13 13 23 3 9 -9 16 -9 32 1 14 9 24 10 33 3 7 -6 17 -6 26
-1 8 5 23 7 33 4 13 -4 20 0 24 15 5 20 6 20 19 4 11 -15 16 -16 33 -6 13 8
22 9 26 3 11 -18 25 0 25 31 0 19 -5 29 -15 29 -8 0 -15 -7 -15 -16 0 -14 -1
-14 -16 0 -19 19 -16 20 -37 -1z"/>
<path d="M2513 53 c-7 -2 -13 -16 -13 -29 0 -19 5 -24 26 -24 22 0 25 4 22 27
-3 27 -14 35 -35 26z"/>
<path d="M1611 31 c-16 -29 -14 -31 20 -31 26 0 30 3 27 22 -4 29 -34 35 -47
9z"/>
<path d="M2382 38 c-21 -21 -13 -38 18 -38 33 0 35 3 20 31 -12 22 -21 24 -38
7z"/>
<path d="M2440 26 c0 -21 5 -26 26 -26 21 0 25 4 22 23 -2 14 -11 23 -25 25
-19 3 -23 -1 -23 -22z"/>
<path d="M1542 28 c-20 -20 -14 -30 16 -26 16 2 27 9 27 18 0 19 -27 24 -43 8z"/>
<path d="M2310 21 c0 -16 6 -21 26 -21 33 0 30 33 -4 38 -17 3 -22 -2 -22 -17z"/>
<path d="M2957 24 c-13 -13 -7 -24 14 -24 11 0 19 5 17 12 -5 14 -22 21 -31
12z"/>
<path d="M2895 10 c-3 -5 3 -10 14 -10 12 0 21 5 21 10 0 6 -6 10 -14 10 -8 0
-18 -4 -21 -10z"/>
<path d="M2848 3 c7 -3 16 -2 19 1 4 3 -2 6 -13 5 -11 0 -14 -3 -6 -6z"/>
</g>
</svg>
